<svg width="73" height="72" viewBox="0 0 73 72" fill="none" xmlns="http://www.w3.org/2000/svg">
<path d="M72.119 29.43C72.38 28.677 72.5 27.903 72.5 27.138C72.5 24.828 71.36 22.596 69.335 21.195C62.876 16.719 63.731 17.844 61.298 10.566C60.278 7.527 57.341 5.475 54.026 5.475H54.005C46.046 5.502 47.426 5.928 41.003 1.413C39.665 0.471 38.081 0 36.5 0C34.919 0 33.335 0.471 31.994 1.413C25.526 5.958 26.936 5.499 18.992 5.472H18.971C15.659 5.472 12.719 7.527 11.705 10.563C9.269 17.859 10.103 16.731 3.671 21.195C1.64 22.602 0.5 24.831 0.5 27.144C0.5 27.906 0.626 28.677 0.881 29.43C3.374 36.714 3.368 35.316 0.881 42.57C0.626 43.323 0.5 44.091 0.5 44.856C0.5 47.166 1.64 49.398 3.671 50.805C10.109 55.275 9.275 54.144 11.708 61.434C12.722 64.473 15.659 66.525 18.974 66.525H18.995C26.954 66.498 25.574 66.069 31.997 70.584C33.335 71.526 34.919 72 36.5 72C38.081 72 39.665 71.526 41.006 70.587C47.429 66.075 46.043 66.501 54.008 66.528H54.029C57.341 66.528 60.281 64.473 61.301 61.437C63.734 54.156 62.876 55.281 69.338 50.808C71.36 49.401 72.5 47.169 72.5 44.859C72.5 44.097 72.38 43.323 72.119 42.57C69.626 35.286 69.638 36.681 72.119 29.43ZM36.5 61.5C22.418 61.5 11 50.082 11 36C11 21.918 22.418 10.5 36.5 10.5C50.582 10.5 62 21.918 62 36C62 50.082 50.582 61.5 36.5 61.5ZM32.75 47.874L21.5 36.963L26.147 32.319L32.75 38.583L46.853 24.126L51.5 28.77L32.75 47.874Z" fill="#A20592"/>
</svg>
