<svg width="276" height="276" viewBox="0 0 276 276" fill="none" xmlns="http://www.w3.org/2000/svg">
<path d="M237.911 187.128C237.911 187.128 259.439 127.512 236.255 75.624C213.071 23.736 154.007 12.696 125.303 22.08C96.599 31.464 81.143 80.592 65.687 103.776C50.231 126.96 12.695 155.112 28.151 190.992C43.607 226.872 82.799 215.832 105.983 232.392C129.167 248.952 156.215 261.648 187.679 250.608C219.143 239.568 230.735 209.208 237.911 187.128Z" fill="#7E57C2"/>
<path opacity="0.7" d="M237.911 187.128C237.911 187.128 259.439 127.512 236.255 75.624C213.071 23.736 154.007 12.696 125.303 22.08C96.599 31.464 81.143 80.592 65.687 103.776C50.231 126.96 12.695 155.112 28.151 190.992C43.607 226.872 82.799 215.832 105.983 232.392C129.167 248.952 156.215 261.648 187.679 250.608C219.143 239.568 230.735 209.208 237.911 187.128Z" fill="white"/>
<path d="M210.708 84.8203C211.08 83.1522 210.859 81.4067 210.083 79.8838C209.308 78.361 208.025 77.1559 206.458 76.4759C204.89 75.7958 203.134 75.6831 201.492 76.1573C199.85 76.6314 198.424 77.6628 197.46 79.074C197.207 77.3776 196.37 75.8229 195.092 74.6785C193.815 73.5341 192.177 72.872 190.464 72.8065C188.75 72.741 187.067 73.2764 185.706 74.32C184.345 75.3635 183.391 76.8498 183.009 78.522C181.96 83.1477 184.334 87.7238 187.11 91.2677C187.662 91.9797 193.243 100.475 192.509 101.154C198.084 95.9707 208.738 93.5143 210.708 84.8203Z" fill="#7E57C2"/>
<path d="M95.2907 96.4398C94.9673 95.6564 94.3808 95.0102 93.6323 94.6126C92.8838 94.2149 92.02 94.0907 91.1898 94.2614C90.3595 94.432 89.6148 94.8867 89.0837 95.5473C88.5527 96.2079 88.2685 97.033 88.2803 97.8806C87.694 97.2688 86.9128 96.8805 86.0711 96.7826C85.2295 96.6846 84.38 96.8832 83.6689 97.3439C82.9578 97.8047 82.4295 98.499 82.175 99.3072C81.9205 100.115 81.9557 100.987 82.2746 101.772C83.1633 103.947 85.4265 105.123 87.5572 105.774C87.9878 105.901 92.6632 107.761 92.5583 108.242C93.3421 104.549 96.9633 100.525 95.2907 96.4398Z" fill="#7E57C2"/>
<path d="M183.925 248.356C184.428 247.665 184.671 246.819 184.613 245.966C184.554 245.113 184.197 244.309 183.605 243.693C183.012 243.077 182.221 242.69 181.371 242.599C180.522 242.508 179.667 242.719 178.957 243.195C179.167 242.371 179.082 241.5 178.717 240.732C178.352 239.964 177.731 239.348 176.96 238.991C176.189 238.633 175.317 238.556 174.495 238.774C173.673 238.991 172.953 239.489 172.46 240.181C171.097 242.096 171.306 244.635 171.908 246.805C172.029 247.235 172.946 252.181 172.46 252.352C176.026 251.028 181.364 251.944 183.925 248.356Z" fill="#7E57C2"/>
<path d="M191.968 33.4236C192.054 32.5782 191.84 31.7297 191.365 31.0252C190.89 30.3208 190.184 29.8048 189.368 29.5668C188.552 29.3288 187.679 29.3838 186.9 29.7222C186.121 30.0607 185.484 30.6613 185.102 31.4198C184.871 30.6029 184.363 29.892 183.664 29.41C182.965 28.928 182.12 28.705 181.275 28.7796C180.429 28.8542 179.637 29.2217 179.033 29.8186C178.43 30.4156 178.054 31.2045 177.97 32.0491C177.743 34.3841 179.19 36.4651 180.774 38.0549C181.089 38.3695 184.351 42.2004 184.031 42.5758C186.46 39.6778 191.543 37.812 191.968 33.4236Z" fill="#7E57C2"/>
<path d="M225.838 219.724C225.923 218.878 225.71 218.03 225.235 217.325C224.76 216.621 224.053 216.105 223.238 215.867C222.422 215.629 221.549 215.684 220.77 216.022C219.99 216.361 219.354 216.961 218.971 217.72C218.744 216.901 218.237 216.187 217.538 215.703C216.839 215.219 215.993 214.995 215.146 215.07C214.3 215.145 213.506 215.514 212.903 216.113C212.3 216.712 211.925 217.503 211.845 218.349C211.613 220.684 213.059 222.765 214.644 224.355C214.958 224.67 218.22 228.495 217.906 228.876C220.329 225.978 225.408 224.112 225.838 219.724Z" fill="#7E57C2"/>
<path d="M76.7268 190.346C76.7803 189.776 76.6336 189.206 76.3119 188.732C75.9902 188.259 75.5137 187.913 74.9642 187.753C74.4148 187.592 73.8267 187.629 73.3012 187.855C72.7756 188.082 72.3454 188.484 72.0845 188.994C71.9315 188.44 71.5892 187.957 71.1171 187.63C70.645 187.302 70.0731 187.15 69.5007 187.201C68.9283 187.251 68.3918 187.501 67.9844 187.906C67.577 188.312 67.3246 188.847 67.2711 189.419C67.1165 190.998 68.0935 192.416 69.1589 193.476C69.3742 193.686 71.5822 196.275 71.3669 196.529C73.0119 194.569 76.4453 193.31 76.7268 190.346Z" fill="#7E57C2"/>
<path d="M264.308 176.419L230.834 170.27C230.834 170.27 224.917 171.639 217.857 172.55C211.905 173.248 205.874 172.783 200.099 171.181C195.998 170.044 188.032 168.222 186.437 167.996C184.842 167.769 176.644 170.044 173.233 171.86C171.522 172.77 170.622 172.334 170.142 171.666C169.898 171.297 169.776 170.86 169.792 170.418C169.809 169.975 169.964 169.549 170.236 169.199C171.243 167.826 172.488 166.645 173.912 165.71C177.058 163.745 185.504 160.704 185.504 160.704L184.367 157.977C184.367 157.977 174.801 158.435 172.526 159.114C170.252 159.793 162.756 162.288 161.393 162.288C160.029 162.288 157.749 162.288 157.529 160.466C157.308 158.645 167.774 153.18 170.732 152.269L179.614 149.537H170.269C169.358 149.537 155.243 151.358 151.6 149.763C147.957 148.168 148.641 147.031 150.689 145.899C152.737 144.767 165.947 142.256 168.221 141.798C170.495 141.34 184.615 141.571 184.615 141.571C184.615 141.571 174.823 137.928 171.638 137.017C168.453 136.107 161.393 136.338 157.065 135.428C152.737 134.517 152.737 130.189 157.749 129.731C162.762 129.273 191.675 130.415 196.908 131.1C202.141 131.784 229.697 145.452 229.697 145.452L233.793 146.595L267.719 148.184" fill="white"/>
<path d="M264.308 176.419L230.834 170.27C230.834 170.27 224.917 171.639 217.857 172.55C211.905 173.248 205.874 172.783 200.099 171.181C195.998 170.044 188.032 168.222 186.437 167.996C184.842 167.769 176.644 170.044 173.233 171.86C171.522 172.77 170.622 172.334 170.142 171.666C169.898 171.297 169.776 170.86 169.792 170.418C169.809 169.975 169.964 169.549 170.236 169.199C171.243 167.826 172.488 166.645 173.912 165.71C177.058 163.745 185.504 160.704 185.504 160.704L184.367 157.977C184.367 157.977 174.801 158.435 172.526 159.114C170.252 159.793 162.756 162.288 161.393 162.288C160.029 162.288 157.749 162.288 157.529 160.466C157.308 158.645 167.774 153.18 170.732 152.269L179.614 149.537H170.269C169.358 149.537 155.243 151.358 151.6 149.763C147.957 148.168 148.641 147.031 150.689 145.899C152.737 144.767 165.947 142.256 168.221 141.798C170.495 141.34 184.615 141.571 184.615 141.571C184.615 141.571 174.823 137.928 171.638 137.017C168.453 136.107 161.393 136.338 157.065 135.428C152.737 134.517 152.737 130.189 157.749 129.731C162.762 129.273 191.675 130.415 196.908 131.1C202.141 131.784 229.697 145.452 229.697 145.452L233.793 146.595L267.719 148.184" stroke="#263238" stroke-width="0.552" stroke-linecap="round" stroke-linejoin="round"/>
<path d="M207.386 139.987C207.386 139.987 190.765 144.315 189.17 144.773C187.575 145.231 181.657 144.773 178.467 144.773C175.276 144.773 173.686 145.91 174.824 148.637C175.961 151.364 181.199 154.554 185.753 155.465C190.307 156.376 196.456 153.417 200.105 155.013C203.754 156.608 204.886 160.251 214.22 163.21C223.554 166.169 231.978 161.615 231.978 161.615" fill="white"/>
<path d="M207.386 139.987C207.386 139.987 190.765 144.315 189.17 144.773C187.575 145.231 181.657 144.773 178.467 144.773C175.276 144.773 173.686 145.91 174.824 148.637C175.961 151.364 181.199 154.554 185.753 155.465C190.307 156.376 196.456 153.417 200.105 155.013C203.754 156.608 204.886 160.251 214.22 163.21C223.554 166.169 231.978 161.615 231.978 161.615" stroke="#263238" stroke-width="0.552" stroke-linecap="round" stroke-linejoin="round"/>
<path d="M176.391 145.491C176.43 146.785 176.959 148.015 177.87 148.935C179.344 150.293 182.545 149.923 182.545 149.923C182.613 149.189 182.613 148.45 182.545 147.715C182.424 147.018 182.173 146.35 181.806 145.745C180.048 145.224 178.19 145.137 176.391 145.491Z" fill="#7E57C2" stroke="#263238" stroke-width="0.552" stroke-linecap="round" stroke-linejoin="round"/>
<path d="M185.868 161.863C185.868 161.863 185.747 161.863 187.099 162.967C188.451 164.071 188.948 167.151 188.948 167.151" stroke="#263238" stroke-width="0.552" stroke-linecap="round" stroke-linejoin="round"/>
<path d="M195.595 134.776C195.595 134.776 195.352 140.296 196.456 142.659" stroke="#263238" stroke-width="0.552" stroke-linecap="round" stroke-linejoin="round"/>
<path d="M201.877 156.078C201.877 156.078 203.229 161.984 205.813 165.186" stroke="#263238" stroke-width="0.552" stroke-linecap="round" stroke-linejoin="round"/>
<path d="M121.7 192.996C121.7 192.996 108.082 194.221 105.549 195.088C103.015 195.954 98.2789 197.92 96.3414 199.62C94.4039 201.32 81.5368 212.41 81.5368 212.41L73.2236 214.888L76.094 241.826L90.2473 237.41C90.2473 237.41 103.241 236.626 109.38 237.283C115.518 237.94 122.131 234.622 122.131 234.622C122.131 234.622 126.337 233.667 127.585 232.773C128.832 231.879 130.565 227.021 130.565 227.021C130.565 227.021 133.635 226.243 134.523 224.189C135.475 221.678 136.096 219.055 136.372 216.384C136.403 215.251 136.282 214.118 136.014 213.017C136.014 213.017 137.228 201.27 135.887 197.191C134.545 193.112 121.7 192.996 121.7 192.996Z" fill="white" stroke="#263238" stroke-width="0.552" stroke-linecap="round" stroke-linejoin="round"/>
<path d="M136.371 216.384C134.405 215.738 132.338 215.455 130.271 215.55C126.959 215.733 112.988 214.513 112.243 215.677C111.498 216.842 110.245 219.939 111.647 221.457C113.049 222.975 128.654 225.216 128.654 225.216C128.654 225.216 130.564 225.9 130.564 227.004" stroke="#263238" stroke-width="0.552" stroke-linecap="round" stroke-linejoin="round"/>
<path d="M111.636 221.457C111.636 221.457 108.628 219.668 107.91 221.755C107.192 223.842 105.233 226.822 109.853 228.881C114.473 230.94 124.04 231.973 124.04 231.973" stroke="#263238" stroke-width="0.552" stroke-linecap="round" stroke-linejoin="round"/>
<path d="M116.649 231.111C116.649 231.111 119.509 233.794 121.479 234.12" stroke="#263238" stroke-width="0.552" stroke-linecap="round" stroke-linejoin="round"/>
<path d="M107.154 224.559C107.154 224.559 107.347 225.525 108.81 226.359C109.486 226.777 110.218 227.095 110.985 227.302C111.469 226.889 111.807 226.332 111.951 225.713C112.165 224.698 112.296 223.668 112.343 222.633" stroke="#263238" stroke-width="0.552" stroke-linecap="round" stroke-linejoin="round"/>
<path d="M111.388 220.138C112.014 220.652 112.751 221.013 113.541 221.192C114.304 221.311 115.076 221.363 115.848 221.347C116.469 220.837 116.88 220.115 117.002 219.321C117.228 217.963 116.416 216.561 115.848 216.45C115.279 216.34 113.237 216.014 112.387 216.224" stroke="#263238" stroke-width="0.552" stroke-linecap="round" stroke-linejoin="round"/>
<path d="M128.158 227.236C128.158 227.236 128.252 228.771 127.783 229.505C127.419 230.047 127.021 230.565 126.591 231.056C126.591 231.056 128.462 231.018 128.992 227.844" stroke="#263238" stroke-width="0.552" stroke-linecap="round" stroke-linejoin="round"/>
<path d="M131.68 181.415L116.103 179.853L121.413 222.6L131.68 181.415Z" fill="white" stroke="#263238" stroke-width="0.552" stroke-linecap="round" stroke-linejoin="round"/>
<path d="M118.696 178.478L121.412 222.6L199.04 227.181L193.089 185.505L118.696 178.478Z" fill="white" stroke="#263238" stroke-width="0.552" stroke-linecap="round" stroke-linejoin="round"/>
<path d="M139.932 202.17C137.276 203.081 136.559 205.752 138.331 208.132C139.058 209.047 139.981 209.789 141.031 210.302C142.082 210.816 143.233 211.089 144.403 211.101C143.083 212.343 142.968 214.336 144.331 216.163C146.103 218.548 149.691 219.74 152.352 218.829C155.448 217.764 156.569 214.932 156.906 212.249C156.977 211.697 158.396 205.841 159.18 205.99C153.157 204.88 145.755 200.172 139.932 202.17Z" fill="#7E57C2"/>
<path d="M153.329 188.812C151.16 187.824 148.769 188.26 147.986 189.827C147.384 191.014 147.908 192.504 149.167 193.586C147.511 193.327 145.949 193.862 145.347 195.055C144.563 196.606 145.689 198.67 147.859 199.664C150.392 200.823 153.13 200.514 155.322 199.874C155.758 199.747 160.935 198.676 161.267 199.095C158.727 195.91 158.087 190.992 153.329 188.812Z" fill="#7E57C2"/>
<path d="M152.904 197.478C150.939 197.152 149.371 198.135 149.399 199.686C149.399 200.867 150.381 202.026 151.712 202.65C150.398 202.832 149.476 203.682 149.504 204.858C149.531 206.393 151.16 207.9 153.114 208.225C154.099 208.364 155.102 208.288 156.055 208.002C157.008 207.717 157.888 207.228 158.634 206.569C158.904 206.354 162.26 204.152 162.663 204.428C159.556 202.291 157.188 198.168 152.904 197.478Z" fill="#263238"/>
<path d="M138.067 193.167C136.102 192.847 134.534 193.829 134.562 195.375C134.562 196.551 135.544 197.715 136.875 198.339C135.561 198.521 134.639 199.371 134.667 200.547C134.694 202.082 136.323 203.589 138.277 203.914C139.262 204.054 140.266 203.978 141.218 203.692C142.171 203.406 143.051 202.917 143.797 202.258C144.067 202.038 147.423 199.841 147.826 200.117C144.746 197.98 142.378 193.879 138.067 193.167Z" fill="#263238"/>
<path d="M155.267 210.025C154.284 210.682 154.356 211.99 155.427 212.945C155.822 213.295 156.29 213.552 156.797 213.698C157.304 213.844 157.837 213.875 158.358 213.79C157.983 214.485 158.214 215.446 159.031 216.152C160.102 217.107 161.764 217.344 162.746 216.704C163.889 215.937 163.966 214.496 163.729 213.238C163.685 212.978 163.458 210.119 163.806 210.119C161.151 210.113 157.414 208.573 155.267 210.025Z" fill="#263238"/>
<path d="M184.738 200.254L186.566 211.714L164.944 210.041L163.122 198.582L184.738 200.254Z" fill="#263238"/>
<path d="M182.59 211.41L183.048 211.443L182.85 210.196L182.392 210.163L182.59 211.41Z" fill="white"/>
<path d="M174.592 210.787L175.05 210.825L174.852 209.578L174.394 209.539L174.592 210.787Z" fill="white"/>
<path d="M171.926 210.582L172.384 210.615L172.186 209.368L171.728 209.335L171.926 210.582Z" fill="white"/>
<path d="M169.259 210.373L169.717 210.411L169.519 209.164L169.061 209.131L169.259 210.373Z" fill="white"/>
<path d="M166.593 210.168L167.051 210.207L166.853 208.96L166.395 208.921L166.593 210.168Z" fill="white"/>
<path d="M179.924 211.201L180.382 211.239L180.184 209.992L179.726 209.953L179.924 211.201Z" fill="white"/>
<path d="M186.365 210.472L186.305 210.102L185.46 210.036L185.515 210.406L186.365 210.472Z" fill="white"/>
<path d="M185.257 211.615L185.715 211.653L185.517 210.406L185.059 210.367L185.257 211.615Z" fill="white"/>
<path d="M177.258 210.996L177.716 211.03L177.518 209.782L177.06 209.749L177.258 210.996Z" fill="white"/>
<path d="M172.125 209.004L172.186 209.368L174.394 209.539L174.333 209.175L172.125 209.004Z" fill="white"/>
<path d="M164.689 208.424L164.745 208.794L166.395 208.921L166.334 208.551L164.689 208.424Z" fill="white"/>
<path d="M177.463 209.418L177.518 209.782L179.726 209.953L179.665 209.583L177.463 209.418Z" fill="white"/>
<path d="M180.129 209.622L180.184 209.992L182.392 210.163L182.331 209.793L180.129 209.622Z" fill="white"/>
<path d="M174.791 209.208L174.852 209.578L177.06 209.749L176.999 209.379L174.791 209.208Z" fill="white"/>
<path d="M182.795 209.826L182.85 210.196L185.058 210.367L184.997 209.997L182.795 209.826Z" fill="white"/>
<path d="M165.23 198.72L164.767 198.687L164.976 199.984L163.32 199.857L163.376 200.221L165.032 200.354L165.313 202.12L163.657 201.993L163.718 202.363L165.374 202.49L165.655 204.257L163.999 204.13L164.054 204.499L165.71 204.626L165.986 206.393L164.33 206.266L164.391 206.636L166.047 206.763L166.329 208.529L166.787 208.568L166.505 206.796L168.713 206.967L168.995 208.739L169.453 208.772L169.177 207.006L171.385 207.177L171.667 208.943L172.13 208.982L171.849 207.21L174.057 207.381L174.338 209.153L174.802 209.186L174.52 207.42L176.728 207.591L177.01 209.357L177.474 209.39L177.192 207.624L179.4 207.795L179.682 209.561L180.145 209.6L179.864 207.834L182.072 208.005L182.353 209.771L182.817 209.804L182.535 208.038L184.743 208.209L185.025 209.975L185.489 210.014L185.207 208.242L186.052 208.308L185.991 207.944L185.146 207.878L184.865 206.106L185.715 206.172L185.654 205.802L184.81 205.741L184.528 203.97L185.373 204.036L185.312 203.666L184.467 203.6L184.186 201.833L185.03 201.9L184.975 201.53L184.131 201.463L183.921 200.166L183.463 200.133L183.667 201.43L181.459 201.259L181.255 199.962L180.797 199.923L181.001 201.221L178.793 201.049L178.589 199.752L178.13 199.719L178.335 201.016L176.127 200.845L175.922 199.548L175.464 199.509L175.669 200.812L173.461 200.641L173.256 199.338L172.798 199.305L173.002 200.602L170.794 200.431L170.59 199.134L170.132 199.101L170.336 200.398L168.128 200.227L167.924 198.93L167.466 198.891L167.67 200.188L165.462 200.017L165.23 198.72ZM165.832 202.523L168.04 202.694L168.321 204.461L166.113 204.295L165.832 202.523ZM178.986 205.283L176.778 205.112L176.502 203.346L178.71 203.517L178.986 205.283ZM179.168 203.55L181.376 203.721L181.658 205.493L179.45 205.322L179.168 203.55ZM176.32 205.079L174.112 204.908L173.836 203.136L176.044 203.307L176.32 205.079ZM173.654 204.869L171.446 204.698L171.164 202.932L173.372 203.103L173.654 204.869ZM170.988 204.665L168.78 204.494L168.498 202.728L170.706 202.899L170.988 204.665ZM166.456 206.448L166.152 204.682L168.36 204.853L168.642 206.625L166.456 206.448ZM169.122 206.652L168.84 204.886L171.048 205.057L171.33 206.823L169.122 206.652ZM171.788 206.862L171.506 205.09L173.714 205.261L173.996 207.028L171.788 206.862ZM174.454 207.066L174.173 205.3L176.381 205.471L176.662 207.237L174.454 207.066ZM177.12 207.27L176.839 205.504L179.047 205.675L179.328 207.442L177.12 207.27ZM179.786 207.48L179.505 205.708L181.713 205.879L181.994 207.651L179.786 207.48ZM184.661 207.856L182.453 207.684L182.171 205.918L184.379 206.089L184.661 207.856ZM184.318 205.719L182.11 205.548L181.829 203.782L184.037 203.953L184.318 205.719ZM183.7 201.817L183.982 203.583L181.774 203.412L181.492 201.646L183.7 201.817ZM181.034 201.607L181.316 203.373L179.108 203.208L178.826 201.436L181.034 201.607ZM178.368 201.403L178.649 203.169L176.441 202.998L176.16 201.232L178.368 201.403ZM175.702 201.193L175.983 202.965L173.775 202.794L173.494 201.022L175.702 201.193ZM173.036 200.989L173.317 202.755L171.109 202.584L170.828 200.818L173.036 200.989ZM170.369 200.779L170.651 202.551L168.443 202.38L168.161 200.608L170.369 200.779ZM167.703 200.575L167.979 202.341L165.771 202.17L165.49 200.404L167.703 200.575Z" fill="white"/>
<path d="M169.464 208.794L169.519 209.164L171.727 209.335L171.666 208.965L169.464 208.794Z" fill="white"/>
<path d="M166.793 208.59L166.854 208.96L169.062 209.131L169.001 208.761L166.793 208.59Z" fill="white"/>
<path d="M100.392 199.559C100.392 199.559 111.272 196.037 113.8 196.275C116.328 196.512 124.288 198.565 126.739 199.162C129.19 199.758 132.64 199.04 132.259 201.187C131.878 203.335 129.698 205.537 127.164 206.404C124.63 207.271 121.594 206.763 120.016 206.316C118.437 205.868 115.749 205.421 115.749 205.421L112.265 208.7C112.265 208.7 107.562 217.107 102.495 219.939C97.4277 222.771 91.4551 222.147 91.4551 222.147" fill="white"/>
<path d="M100.392 199.559C100.392 199.559 111.272 196.037 113.8 196.275C116.328 196.512 124.288 198.565 126.739 199.162C129.19 199.758 132.64 199.04 132.259 201.187C131.878 203.335 129.698 205.537 127.164 206.404C124.63 207.271 121.594 206.763 120.016 206.316C118.437 205.868 115.749 205.421 115.749 205.421L112.265 208.7C112.265 208.7 107.562 217.107 102.495 219.939C97.4277 222.771 91.4551 222.147 91.4551 222.147" stroke="#263238" stroke-width="0.552" stroke-linecap="round" stroke-linejoin="round"/>
<path d="M126.011 199.487C126.011 199.487 126.331 199.658 126.237 200.227L125.917 202.153C125.917 202.153 126.199 202.551 127.998 202.965C129.798 203.379 131.095 203.246 131.796 202.551" stroke="#263238" stroke-width="0.552" stroke-linecap="round" stroke-linejoin="round"/>
<path d="M116.936 197.98C117.194 198.956 117.34 199.958 117.372 200.967C117.388 201.547 117.37 202.127 117.316 202.705C118.074 201.366 118.334 199.802 118.051 198.289" stroke="#263238" stroke-width="0.552" stroke-linecap="round" stroke-linejoin="round"/>
<path d="M115.688 197.771C115.542 198.649 115.633 199.55 115.952 200.381" stroke="#263238" stroke-width="0.552" stroke-linecap="round" stroke-linejoin="round"/>
<path d="M78.1189 212.536L83.4402 247.942L70.3523 250.437L64.5342 215.181L78.1189 212.536Z" fill="white" stroke="#263238" stroke-width="0.552" stroke-linecap="round" stroke-linejoin="round"/>
<path d="M15.5001 264.325L75.1161 255.874L69.4195 212.553L11.0068 216.119C11.0068 216.119 13.1044 224.835 13.1762 241.848C13.248 258.408 15.5001 264.325 15.5001 264.325Z" fill="#263238"/>
<path d="M15.5001 264.325L75.094 255.874L69.3974 212.553L11.0068 216.119" stroke="#263238" stroke-width="0.552" stroke-linecap="round" stroke-linejoin="round"/>
<path d="M91.1299 65.2407C91.1299 65.2407 95.7391 69.2979 101.005 70.286C106.271 71.2741 111.863 72.2566 111.863 72.2566L136.537 111.084C136.537 111.084 126.011 113.386 120.745 110.427C115.479 107.469 104.952 88.0494 104.952 88.0494L91.1299 65.2407Z" fill="white" stroke="#263238" stroke-width="0.552" stroke-linecap="round" stroke-linejoin="round"/>
<path d="M129.721 28.3892L133.673 21.3678C133.673 21.3678 158.458 40.4504 167.235 50.9826C176.011 61.5148 174.692 63.0438 172.716 68.3099C170.74 73.576 156.046 85.6372 156.046 85.6372C156.046 85.6372 158.254 80.8127 156.046 69.6292C153.838 58.4456 151 47.6982 141.142 39.5783C131.283 31.4584 129.721 28.3892 129.721 28.3892Z" fill="white" stroke="#263238" stroke-width="0.552" stroke-linecap="round" stroke-linejoin="round"/>
<path d="M93.3285 58.8762C93.3285 58.8762 88.2832 51.1979 88.2832 47.6927C88.2832 44.1875 93.3285 27.9477 95.7407 19.8333C98.153 11.7189 98.153 11.0399 98.153 11.0399C98.153 11.0399 111.754 18.2822 121.845 21.7929C131.935 25.3036 150.797 36.6969 158.476 46.5777C166.154 56.4585 161.788 72.9026 160.231 75.9717C158.674 79.0408 140.491 92.2005 136.539 94.6182C132.587 97.036 125.135 101.855 125.135 101.855C121.927 99.9771 118.977 97.6911 116.358 95.0543C112.61 91.1241 93.3285 58.8762 93.3285 58.8762Z" fill="white" stroke="#263238" stroke-width="0.552" stroke-linecap="round" stroke-linejoin="round"/>
<path d="M132.559 93.5915C127.552 92.547 122.654 91.041 117.925 89.0927C110.606 85.996 102 73.3607 102 73.3607L121.32 82.3362C121.32 82.3362 108.072 71.92 106.416 66.2896C105.324 62.4229 104.57 58.4685 104.164 54.4712L118.24 64.882C118.24 64.882 113.172 58.131 112.046 49.978C110.92 41.8249 110.324 34.2239 110.324 34.2239C110.324 34.2239 114.817 43.492 119.614 49.6799C124.411 55.8678 130.87 67.9732 130.87 67.9732L126.652 37.5745C126.652 37.5745 134.811 45.1756 136.5 51.0875C138.189 56.9994 137.345 64.3355 138.189 63.4688C139.034 62.6022 149.781 50.4472 149.781 50.4472C149.781 50.4472 146.381 66.5656 144.973 69.6623C143.566 72.759 142.417 75.0167 142.417 75.0167C142.417 75.0167 149.174 69.1048 155.367 67.6972C161.561 66.2896 174.218 62.3759 174.218 62.3759C174.218 62.3759 162.957 70.8215 159.022 73.6367C155.086 76.4519 138.752 86.0236 138.752 86.0236L155.803 77.5062C155.803 77.5062 144.664 93.0284 132.559 93.5915Z" fill="#7E57C2"/>
<path opacity="0.36" d="M132.559 93.5915C127.552 92.547 122.654 91.041 117.925 89.0927C110.606 85.996 102 73.3607 102 73.3607L121.32 82.3362C121.32 82.3362 108.072 71.92 106.416 66.2896C105.324 62.4229 104.57 58.4685 104.164 54.4712L118.24 64.882C118.24 64.882 113.172 58.131 112.046 49.978C110.92 41.8249 110.324 34.2239 110.324 34.2239C110.324 34.2239 114.817 43.492 119.614 49.6799C124.411 55.8678 130.87 67.9732 130.87 67.9732L126.652 37.5745C126.652 37.5745 134.811 45.1756 136.5 51.0875C138.189 56.9994 137.345 64.3355 138.189 63.4688C139.034 62.6022 149.781 50.4472 149.781 50.4472C149.781 50.4472 146.381 66.5656 144.973 69.6623C143.566 72.759 142.417 75.0167 142.417 75.0167C142.417 75.0167 149.174 69.1048 155.367 67.6972C161.561 66.2896 174.218 62.3759 174.218 62.3759C174.218 62.3759 162.957 70.8215 159.022 73.6367C155.086 76.4519 138.752 86.0236 138.752 86.0236L155.803 77.5062C155.803 77.5062 144.664 93.0284 132.559 93.5915Z" fill="black"/>
<path d="M160.08 44.8113C159.528 44.2593 140.258 66.8913 136.3 95.7112" stroke="#263238" stroke-width="1.104" stroke-linecap="round" stroke-linejoin="round"/>
<path d="M159.374 46.5004C158.686 45.7244 158.201 44.7894 157.964 43.7795C157.727 42.7696 157.745 41.7167 158.016 40.7154C158.944 37.2323 166.594 30.8622 168.863 30.3268C171.132 29.7914 172.545 32.0766 171.949 34.1908C171.353 36.305 169.139 43.5748 166.65 45.021C164.16 46.4673 159.374 46.5004 159.374 46.5004Z" fill="white" stroke="#263238" stroke-width="0.552" stroke-linecap="round" stroke-linejoin="round"/>
<path d="M170.094 30.9119C169.433 33.6052 168.509 36.2269 167.334 38.7392C165.678 41.9574 161.163 45.8545 159.353 46.5003" stroke="#263238" stroke-width="0.552" stroke-linecap="round" stroke-linejoin="round"/>
<path d="M167.356 38.7393L171.977 32.4299" stroke="#263238" stroke-width="0.552" stroke-linecap="round" stroke-linejoin="round"/>
<path d="M138.051 97.1078C135.368 66.9189 140.651 40.7486 141.363 41.0246" stroke="#263238" stroke-width="1.104" stroke-linecap="round" stroke-linejoin="round"/>
<path d="M140.397 43.6079C139.471 43.1417 138.675 42.4519 138.082 41.6008C137.49 40.7498 137.118 39.7643 137.002 38.7337C136.577 35.1568 141.336 26.4076 143.251 25.0717C145.166 23.7359 147.314 25.3422 147.534 27.5171C147.755 29.692 148.385 37.2654 146.607 39.5341C144.83 41.8028 140.397 43.6079 140.397 43.6079Z" fill="white" stroke="#263238" stroke-width="0.552" stroke-linecap="round" stroke-linejoin="round"/>
<path d="M144.625 25.1545C145.015 27.8962 145.131 30.6698 144.973 33.4345C144.625 37.0391 141.865 42.3328 140.396 43.6079" stroke="#263238" stroke-width="0.552" stroke-linecap="round" stroke-linejoin="round"/>
<path d="M144.95 33.4401L146.915 25.8722" stroke="#263238" stroke-width="0.552" stroke-linecap="round" stroke-linejoin="round"/>
<path d="M149.913 48.2834C149.223 47.9467 141.788 73.5926 141.959 103.897" stroke="#263238" stroke-width="1.104" stroke-linecap="round" stroke-linejoin="round"/>
<path d="M149.736 50.0994C148.853 49.5589 148.118 48.8062 147.598 47.9098C147.078 47.0134 146.791 46.0015 146.761 44.9658C146.629 41.3613 152.105 33.0371 154.119 31.8669C156.134 30.6966 158.149 32.4741 158.188 34.66C158.226 36.8459 158.226 44.4414 156.267 46.5611C154.307 48.6808 149.736 50.0994 149.736 50.0994Z" fill="white" stroke="#263238" stroke-width="0.552" stroke-linecap="round" stroke-linejoin="round"/>
<path d="M155.461 32.0712C155.621 34.8355 155.508 37.609 155.124 40.3512C154.489 43.906 151.26 48.9513 149.736 50.0884" stroke="#263238" stroke-width="0.552" stroke-linecap="round" stroke-linejoin="round"/>
<path d="M155.124 40.3622L157.707 32.9764" stroke="#263238" stroke-width="0.552" stroke-linecap="round" stroke-linejoin="round"/>
<path d="M115.839 67.5537C115.839 67.5537 111.384 54.4051 106.295 48.024C101.205 41.6428 92.2959 36.167 92.2959 36.167C92.2959 36.167 105.025 51.4353 108.856 58.4347C112.687 65.434 117.765 74.3433 117.765 74.3433L115.839 67.5537Z" fill="#7E57C2"/>
<path d="M134.407 46.5171C135.146 46.3128 135.853 62.2325 130.173 92.0019" stroke="#263238" stroke-width="1.104" stroke-linecap="round" stroke-linejoin="round"/>
<path d="M134.248 48.333C135.215 47.9627 136.076 47.3568 136.75 46.5704C137.425 45.7839 137.893 44.8416 138.112 43.8287C138.895 40.307 135.031 31.1327 133.26 29.6092C131.488 28.0857 129.186 29.4712 128.75 31.613C128.314 33.7547 126.934 41.2288 128.474 43.6686C130.014 46.1085 134.248 48.333 134.248 48.333Z" fill="white" stroke="#263238" stroke-width="0.552" stroke-linecap="round" stroke-linejoin="round"/>
<path d="M131.929 29.5651C131.267 32.2575 130.873 35.0088 130.753 37.7788C130.753 41.3889 132.961 46.931 134.275 48.3331" stroke="#263238" stroke-width="0.552" stroke-linecap="round" stroke-linejoin="round"/>
<path d="M130.725 37.7788L129.527 30.0453" stroke="#263238" stroke-width="0.552" stroke-linecap="round" stroke-linejoin="round"/>
<path d="M139.315 96.1859C124.257 69.8886 104.953 51.4353 104.539 52.0756" stroke="#263238" stroke-width="1.104" stroke-linecap="round" stroke-linejoin="round"/>
<path d="M105.592 53.5439C106.085 52.6314 106.342 51.6109 106.342 50.5741C106.342 49.5373 106.085 48.5168 105.592 47.6044C103.892 44.4193 94.9884 39.9702 92.6534 39.9702C90.3185 39.9702 89.4739 42.5149 90.5337 44.4193C91.5936 46.3237 95.4079 52.9036 98.1679 53.7537C100.928 54.6037 105.592 53.5439 105.592 53.5439Z" fill="white" stroke="#263238" stroke-width="0.552" stroke-linecap="round" stroke-linejoin="round"/>
<path d="M91.5947 40.8479C92.8456 43.3167 94.3378 45.6557 96.0494 47.8307C98.3788 50.5907 103.684 53.3507 105.593 53.5605" stroke="#263238" stroke-width="0.552" stroke-linecap="round" stroke-linejoin="round"/>
<path d="M96.0489 47.8307L90.1094 42.7412" stroke="#263238" stroke-width="0.552" stroke-linecap="round" stroke-linejoin="round"/>
<path d="M123.692 48.2834C124.377 47.9467 131.818 73.5926 131.647 103.897" stroke="#263238" stroke-width="1.104" stroke-linecap="round" stroke-linejoin="round"/>
<path d="M123.864 50.0994C124.749 49.5595 125.485 48.8072 126.005 47.9107C126.526 47.0143 126.814 46.002 126.845 44.9658C126.971 41.3613 121.501 33.0371 119.486 31.8669C117.472 30.6966 115.457 32.4741 115.418 34.66C115.379 36.8459 115.379 44.4414 117.339 46.5611C119.299 48.6808 123.864 50.0994 123.864 50.0994Z" fill="white" stroke="#263238" stroke-width="0.552" stroke-linecap="round" stroke-linejoin="round"/>
<path d="M118.129 32.0712C117.971 34.8357 118.086 37.609 118.471 40.3512C119.106 43.906 122.335 48.9513 123.853 50.0884" stroke="#263238" stroke-width="0.552" stroke-linecap="round" stroke-linejoin="round"/>
<path d="M118.482 40.3622L115.898 32.9764" stroke="#263238" stroke-width="0.552" stroke-linecap="round" stroke-linejoin="round"/>
<path d="M133.661 96.3515C133.661 96.3515 125.801 75.8834 125.978 58.8486" stroke="#263238" stroke-width="0.552" stroke-linecap="round" stroke-linejoin="round"/>
<path d="M124.588 61.0456C124.796 61.076 124.99 61.1675 125.147 61.3084C125.303 61.4493 125.414 61.6334 125.466 61.8374C125.518 62.0414 125.508 62.2562 125.438 62.4546C125.368 62.6531 125.241 62.8264 125.072 62.9525C124.904 63.0787 124.702 63.1521 124.491 63.1636C124.281 63.175 124.072 63.1239 123.891 63.0168C123.71 62.9096 123.565 62.7512 123.473 62.5615C123.382 62.3718 123.349 62.1593 123.379 61.9509C123.398 61.8119 123.445 61.6782 123.517 61.5574C123.588 61.4366 123.683 61.3311 123.795 61.247C123.907 61.1629 124.035 61.1018 124.171 61.0672C124.307 61.0327 124.449 61.0253 124.588 61.0456Z" fill="white" stroke="#263238" stroke-width="0.552" stroke-linecap="round" stroke-linejoin="round"/>
<path d="M124.907 54.0517C125.173 54.0895 125.422 54.2054 125.622 54.3848C125.823 54.5642 125.965 54.7989 126.032 55.0593C126.098 55.3197 126.086 55.5941 125.997 55.8476C125.908 56.1011 125.745 56.3224 125.53 56.4834C125.315 56.6444 125.056 56.738 124.788 56.7522C124.52 56.7663 124.253 56.7005 124.022 56.5631C123.791 56.4256 123.606 56.2227 123.49 55.98C123.375 55.7374 123.334 55.4658 123.373 55.1999C123.425 54.8444 123.615 54.5241 123.903 54.3089C124.19 54.0937 124.552 54.0012 124.907 54.0517Z" fill="white" stroke="#263238" stroke-width="0.552" stroke-linecap="round" stroke-linejoin="round"/>
<path d="M126.133 57.7502C126.321 57.7792 126.496 57.8631 126.637 57.9915C126.777 58.1199 126.877 58.287 126.923 58.4718C126.969 58.6566 126.959 58.8508 126.895 59.0301C126.831 59.2094 126.715 59.3658 126.563 59.4795C126.41 59.5933 126.227 59.6594 126.037 59.6695C125.847 59.6796 125.658 59.6333 125.494 59.5364C125.33 59.4395 125.198 59.2963 125.116 59.1249C125.033 58.9534 125.003 58.7613 125.029 58.5726C125.046 58.4457 125.089 58.3236 125.154 58.2133C125.219 58.103 125.306 58.0068 125.408 57.9302C125.511 57.8537 125.628 57.7984 125.752 57.7674C125.877 57.7365 126.006 57.7306 126.133 57.7502Z" fill="white" stroke="#263238" stroke-width="0.552" stroke-linecap="round" stroke-linejoin="round"/>
<path d="M125.26 68.5749C125.544 68.6181 125.808 68.7441 126.019 68.937C126.231 69.13 126.381 69.3814 126.45 69.6594C126.52 69.9374 126.505 70.2297 126.408 70.4994C126.312 70.7692 126.138 71.0043 125.908 71.1752C125.678 71.3462 125.402 71.4452 125.116 71.4599C124.83 71.4747 124.546 71.4044 124.3 71.258C124.053 71.1116 123.856 70.8956 123.732 70.6372C123.609 70.3788 123.564 70.0895 123.604 69.8059C123.631 69.6159 123.696 69.4332 123.794 69.2682C123.892 69.1033 124.022 68.9595 124.176 68.845C124.33 68.7305 124.505 68.6477 124.691 68.6014C124.877 68.555 125.071 68.546 125.26 68.5749Z" fill="white" stroke="#263238" stroke-width="0.552" stroke-linecap="round" stroke-linejoin="round"/>
<path d="M126.408 63.2646C126.617 63.294 126.812 63.3846 126.969 63.525C127.127 63.6654 127.239 63.8493 127.291 64.0533C127.344 64.2574 127.335 64.4725 127.265 64.6714C127.196 64.8704 127.069 65.0442 126.9 65.1709C126.732 65.2976 126.53 65.3715 126.319 65.3832C126.109 65.395 125.899 65.344 125.718 65.2369C125.537 65.1297 125.391 64.9711 125.3 64.7812C125.208 64.5913 125.175 64.3785 125.205 64.1698C125.245 63.8903 125.394 63.6379 125.619 63.4682C125.845 63.2984 126.129 63.2252 126.408 63.2646Z" fill="white" stroke="#263238" stroke-width="0.552" stroke-linecap="round" stroke-linejoin="round"/>
<path d="M128.269 57.8605C128.37 57.8769 128.462 57.932 128.524 58.0144C128.585 58.0968 128.613 58.1999 128.6 58.3021C128.584 58.4034 128.528 58.4942 128.446 58.5551C128.363 58.616 128.26 58.6421 128.158 58.6278C128.108 58.621 128.06 58.6043 128.016 58.5786C127.972 58.5529 127.934 58.5188 127.904 58.4782C127.874 58.4376 127.852 58.3913 127.839 58.3421C127.827 58.2929 127.825 58.2418 127.833 58.1917C127.839 58.1413 127.856 58.0927 127.882 58.0487C127.907 58.0047 127.941 57.9663 127.982 57.9355C128.022 57.9047 128.069 57.8823 128.118 57.8694C128.167 57.8565 128.218 57.8535 128.269 57.8605Z" fill="white" stroke="#263238" stroke-width="0.552" stroke-linecap="round" stroke-linejoin="round"/>
<path d="M127.557 74.3818C127.728 74.4067 127.888 74.4817 128.016 74.5973C128.144 74.713 128.235 74.864 128.277 75.0314C128.32 75.1988 128.311 75.375 128.253 75.5376C128.195 75.7002 128.09 75.842 127.952 75.945C127.813 76.048 127.647 76.1075 127.475 76.116C127.302 76.1246 127.131 76.0817 126.983 75.9929C126.835 75.9042 126.717 75.7735 126.643 75.6173C126.569 75.4612 126.544 75.2868 126.569 75.116C126.585 75.0024 126.623 74.893 126.681 74.7943C126.739 74.6956 126.817 74.6095 126.909 74.5411C127.001 74.4728 127.106 74.4234 127.217 74.3961C127.328 74.3687 127.444 74.3639 127.557 74.3818Z" fill="white" stroke="#263238" stroke-width="0.552" stroke-linecap="round" stroke-linejoin="round"/>
<path d="M127.342 66.3338C127.513 66.3576 127.673 66.4317 127.802 66.5469C127.931 66.662 128.023 66.8129 128.066 66.9803C128.11 67.1478 128.102 67.3243 128.044 67.4874C127.987 67.6505 127.882 67.7928 127.744 67.8963C127.605 67.9998 127.439 68.0598 127.266 68.0686C127.094 68.0775 126.922 68.0348 126.774 67.946C126.626 67.8573 126.507 67.7264 126.433 67.57C126.359 67.4137 126.334 67.2389 126.359 67.0679C126.375 66.9549 126.413 66.846 126.471 66.7477C126.529 66.6494 126.606 66.5636 126.697 66.4953C126.788 66.427 126.893 66.3775 127.003 66.3498C127.114 66.322 127.229 66.3166 127.342 66.3338Z" fill="white" stroke="#263238" stroke-width="0.552" stroke-linecap="round" stroke-linejoin="round"/>
<path d="M124.637 51.8879C124.788 51.9102 124.929 51.977 125.043 52.0796C125.156 52.1822 125.236 52.3161 125.273 52.4643C125.311 52.6126 125.303 52.7685 125.251 52.9124C125.2 53.0564 125.107 53.1818 124.984 53.2729C124.862 53.364 124.715 53.4166 124.562 53.4242C124.409 53.4317 124.258 53.3938 124.127 53.3153C123.996 53.2368 123.891 53.1211 123.825 52.983C123.76 52.8448 123.737 52.6904 123.759 52.5392C123.774 52.4388 123.809 52.3423 123.861 52.2552C123.913 52.1682 123.982 52.0922 124.063 52.0317C124.145 51.9713 124.237 51.9274 124.336 51.9027C124.434 51.878 124.537 51.873 124.637 51.8879Z" fill="white" stroke="#263238" stroke-width="0.552" stroke-linecap="round" stroke-linejoin="round"/>
<path d="M127.198 76.8715C127.481 76.9147 127.745 77.0407 127.957 77.2337C128.169 77.4266 128.319 77.6779 128.388 77.956C128.457 78.234 128.442 78.5263 128.346 78.796C128.249 79.0658 128.075 79.3009 127.845 79.4718C127.615 79.6428 127.34 79.7418 127.054 79.7565C126.768 79.7713 126.484 79.701 126.237 79.5546C125.991 79.4082 125.794 79.1922 125.67 78.9338C125.546 78.6754 125.501 78.3861 125.542 78.1025C125.569 77.9128 125.634 77.7305 125.733 77.5659C125.831 77.4013 125.961 77.2578 126.114 77.1434C126.268 77.0291 126.443 76.9462 126.629 76.8996C126.815 76.8529 127.008 76.8434 127.198 76.8715Z" fill="white" stroke="#263238" stroke-width="0.552" stroke-linecap="round" stroke-linejoin="round"/>
<path d="M130.505 81.0612C130.865 81.113 131.202 81.2703 131.472 81.5134C131.742 81.7564 131.935 82.0741 132.025 82.4265C132.114 82.7788 132.098 83.1498 131.977 83.4927C131.856 83.8355 131.636 84.1348 131.344 84.3526C131.053 84.5704 130.704 84.6969 130.341 84.7162C129.978 84.7355 129.617 84.6467 129.305 84.461C128.992 84.2753 128.742 84.0011 128.585 83.673C128.428 83.3449 128.372 82.9777 128.424 82.6179C128.494 82.1355 128.752 81.7006 129.142 81.4087C129.533 81.1168 130.023 80.9918 130.505 81.0612Z" fill="white" stroke="#263238" stroke-width="0.552" stroke-linecap="round" stroke-linejoin="round"/>
<path d="M129.721 76.6451C129.92 76.6734 130.106 76.76 130.256 76.894C130.405 77.0281 130.512 77.2036 130.562 77.3982C130.612 77.5929 130.603 77.7979 130.536 77.9875C130.47 78.1771 130.348 78.3427 130.188 78.4632C130.027 78.5838 129.834 78.654 129.633 78.6649C129.433 78.6758 129.233 78.6269 129.06 78.5244C128.887 78.422 128.749 78.2706 128.662 78.0893C128.575 77.9081 128.544 77.7051 128.573 77.5062C128.611 77.2399 128.754 76.9996 128.969 76.8381C129.184 76.6767 129.455 76.6073 129.721 76.6451Z" fill="white" stroke="#263238" stroke-width="0.552" stroke-linecap="round" stroke-linejoin="round"/>
<path d="M129.257 69.3477C129.428 69.3725 129.588 69.4475 129.716 69.5632C129.844 69.6788 129.935 69.8299 129.978 69.9973C130.02 70.1647 130.011 70.3408 129.954 70.5035C129.896 70.6661 129.791 70.8079 129.652 70.9109C129.514 71.0138 129.347 71.0733 129.175 71.0819C129.003 71.0904 128.832 71.0476 128.683 70.9588C128.535 70.87 128.417 70.7393 128.343 70.5832C128.27 70.4271 128.244 70.2526 128.269 70.0819C128.303 69.8537 128.427 69.6483 128.612 69.5107C128.797 69.3731 129.029 69.3145 129.257 69.3477Z" fill="white" stroke="#263238" stroke-width="0.552" stroke-linecap="round" stroke-linejoin="round"/>
<path d="M124.627 72.9799C124.722 72.9941 124.81 73.0361 124.882 73.1007C124.953 73.1653 125.003 73.2495 125.026 73.3427C125.05 73.436 125.045 73.534 125.012 73.6245C124.98 73.7149 124.921 73.7937 124.844 73.8508C124.767 73.908 124.674 73.941 124.578 73.9456C124.482 73.9502 124.387 73.9262 124.305 73.8767C124.222 73.8272 124.157 73.7544 124.116 73.6675C124.075 73.5805 124.06 73.4834 124.075 73.3884C124.094 73.261 124.163 73.1465 124.266 73.0699C124.37 72.9933 124.499 72.9609 124.627 72.9799Z" fill="white" stroke="#263238" stroke-width="0.552" stroke-linecap="round" stroke-linejoin="round"/>
<path d="M130.003 64.1755C130.173 64.2003 130.333 64.2753 130.461 64.3909C130.589 64.5066 130.68 64.6576 130.723 64.825C130.765 64.9924 130.757 65.1686 130.699 65.3312C130.641 65.4939 130.536 65.6356 130.397 65.7386C130.259 65.8416 130.093 65.9011 129.92 65.9096C129.748 65.9182 129.577 65.8753 129.429 65.7866C129.281 65.6978 129.162 65.5671 129.088 65.411C129.015 65.2549 128.989 65.0804 129.014 64.9096C129.049 64.6814 129.172 64.4761 129.357 64.3385C129.542 64.2009 129.774 64.1423 130.003 64.1755Z" fill="white" stroke="#263238" stroke-width="0.552" stroke-linecap="round" stroke-linejoin="round"/>
<path d="M130.146 88.0438C130.146 88.0438 143.156 57.6838 149.753 50.4526C156.349 43.2214 163.061 40.3676 163.061 40.3676C163.061 40.3676 161.676 59.395 155.157 69.2427C148.638 79.0904 127.513 98.9734 127.513 98.9734L130.146 88.0438Z" fill="#7E57C2"/>
<path d="M132.409 90.2022C132.409 90.2022 126.464 65.9142 127.159 58.5174C127.855 51.1206 130.626 46.3679 130.626 46.3679C130.626 46.3679 138.453 58.5119 138.988 67.4543C139.524 76.3967 135.787 98.0462 135.787 98.0462L132.409 90.2022Z" fill="#7E57C2"/>
<path d="M165.656 59.8698C165.302 59.1909 153.164 69.5188 135.246 93.9558" stroke="#263238" stroke-width="1.104" stroke-linecap="round" stroke-linejoin="round"/>
<path d="M164.43 61.2277C164.043 60.2659 163.902 59.2229 164.018 58.1928C164.135 57.1627 164.506 56.1778 165.098 55.3268C167.146 52.357 176.497 48.9346 178.815 49.1941C181.134 49.4535 181.691 52.081 180.421 53.8585C179.152 55.6359 174.62 61.741 171.783 62.271C168.945 62.8009 164.43 61.2277 164.43 61.2277Z" fill="white" stroke="#263238" stroke-width="0.552" stroke-linecap="round" stroke-linejoin="round"/>
<path d="M179.776 50.1603C178.252 52.4764 176.505 54.6377 174.56 56.6132C171.932 59.0861 166.352 61.2334 164.431 61.2279" stroke="#263238" stroke-width="0.552" stroke-linecap="round" stroke-linejoin="round"/>
<path d="M174.56 56.613L181.035 52.2191" stroke="#263238" stroke-width="0.552" stroke-linecap="round" stroke-linejoin="round"/>
<path d="M136.516 90.5279C136.516 90.5279 146.104 70.8104 158.673 59.3068" stroke="#263238" stroke-width="0.552" stroke-linecap="round" stroke-linejoin="round"/>
<path d="M156.118 59.8147C156.238 59.9876 156.304 60.1922 156.308 60.4028C156.312 60.6134 156.254 60.8204 156.14 60.9977C156.026 61.175 155.863 61.3147 155.67 61.3991C155.477 61.4835 155.263 61.5087 155.056 61.4717C154.849 61.4348 154.657 61.3371 154.505 61.1912C154.353 61.0453 154.248 60.8577 154.203 60.652C154.157 60.4463 154.174 60.2318 154.251 60.0356C154.327 59.8394 154.46 59.6703 154.633 59.5497C154.865 59.3891 155.152 59.3268 155.43 59.3764C155.708 59.426 155.955 59.5836 156.118 59.8147Z" fill="white" stroke="#263238" stroke-width="0.552" stroke-linecap="round" stroke-linejoin="round"/>
<path d="M161.444 55.2717C161.598 55.4919 161.684 55.7529 161.689 56.0215C161.695 56.2902 161.621 56.5545 161.476 56.781C161.331 57.0075 161.123 57.1859 160.876 57.2937C160.63 57.4016 160.358 57.4339 160.093 57.3868C159.829 57.3396 159.584 57.2149 159.39 57.0287C159.197 56.8424 159.062 56.6028 159.005 56.3403C158.948 56.0778 158.969 55.8041 159.067 55.5539C159.166 55.3038 159.336 55.0883 159.556 54.9349C159.852 54.7298 160.216 54.65 160.57 54.7131C160.924 54.7762 161.238 54.9771 161.444 55.2717Z" fill="white" stroke="#263238" stroke-width="0.552" stroke-linecap="round" stroke-linejoin="round"/>
<path d="M159.584 58.694C159.695 58.8512 159.757 59.0379 159.762 59.2304C159.767 59.4228 159.715 59.6124 159.611 59.775C159.508 59.9376 159.359 60.066 159.183 60.1437C159.007 60.2215 158.812 60.2452 158.622 60.2117C158.433 60.1783 158.257 60.0893 158.118 59.9561C157.979 59.8228 157.883 59.6512 157.842 59.4632C157.801 59.2751 157.816 59.079 157.887 58.8998C157.957 58.7206 158.079 58.5664 158.237 58.4567C158.448 58.3107 158.707 58.2537 158.959 58.2982C159.212 58.3426 159.436 58.4849 159.584 58.694Z" fill="white" stroke="#263238" stroke-width="0.552" stroke-linecap="round" stroke-linejoin="round"/>
<path d="M151.078 65.4506C151.242 65.6864 151.332 65.9656 151.337 66.2526C151.342 66.5397 151.262 66.8219 151.107 67.0635C150.952 67.3051 150.728 67.4952 150.465 67.6098C150.202 67.7245 149.91 67.7585 149.628 67.7075C149.345 67.6566 149.084 67.5229 148.877 67.3236C148.671 67.1242 148.528 66.868 148.467 66.5874C148.406 66.3069 148.429 66.0145 148.534 65.7473C148.64 65.4801 148.822 65.25 149.057 65.0863C149.374 64.8667 149.764 64.7818 150.143 64.8501C150.522 64.9184 150.858 65.1344 151.078 65.4506Z" fill="white" stroke="#263238" stroke-width="0.552" stroke-linecap="round" stroke-linejoin="round"/>
<path d="M155.742 62.6684C155.863 62.8412 155.93 63.0461 155.934 63.257C155.939 63.4678 155.88 63.6753 155.767 63.853C155.653 64.0308 155.489 64.1708 155.296 64.2553C155.103 64.3399 154.889 64.3652 154.681 64.328C154.474 64.2908 154.282 64.1928 154.13 64.0464C153.978 63.9001 153.873 63.7119 153.828 63.5058C153.783 63.2997 153.801 63.0849 153.878 62.8887C153.955 62.6924 154.089 62.5236 154.263 62.4035C154.377 62.3234 154.506 62.2667 154.642 62.2366C154.779 62.2066 154.92 62.2038 155.057 62.2284C155.195 62.253 155.326 62.3046 155.444 62.3801C155.561 62.4556 155.662 62.5536 155.742 62.6684Z" fill="white" stroke="#263238" stroke-width="0.552" stroke-linecap="round" stroke-linejoin="round"/>
<path d="M160.959 60.3335C160.99 60.3754 161.012 60.4233 161.025 60.4742C161.037 60.5251 161.039 60.578 161.03 60.6296C161.021 60.6813 161.002 60.7306 160.974 60.7745C160.945 60.8185 160.908 60.8563 160.865 60.8855C160.802 60.9277 160.728 60.9506 160.653 60.9513C160.577 60.9519 160.503 60.9305 160.439 60.8894C160.376 60.8484 160.326 60.7897 160.295 60.7205C160.265 60.6513 160.255 60.5746 160.268 60.5001C160.281 60.4256 160.315 60.3564 160.367 60.3011C160.418 60.2459 160.485 60.207 160.558 60.1892C160.632 60.1715 160.709 60.1757 160.78 60.2014C160.851 60.227 160.913 60.273 160.959 60.3335Z" fill="white" stroke="#263238" stroke-width="0.552" stroke-linecap="round" stroke-linejoin="round"/>
<path d="M148.401 71.0864C148.5 71.2277 148.555 71.3954 148.56 71.5682C148.564 71.741 148.516 71.9111 148.423 72.0569C148.331 72.2027 148.197 72.3177 148.038 72.3872C147.88 72.4567 147.705 72.4776 147.535 72.4473C147.365 72.417 147.207 72.3369 147.083 72.217C146.958 72.0971 146.872 71.943 146.835 71.7741C146.799 71.6052 146.813 71.4292 146.876 71.2685C146.94 71.1077 147.05 70.9694 147.192 70.8712C147.285 70.8057 147.391 70.7594 147.502 70.7348C147.613 70.7101 147.729 70.7078 147.841 70.7278C147.953 70.7478 148.06 70.7898 148.157 70.8513C148.253 70.9129 148.336 70.9928 148.401 71.0864Z" fill="white" stroke="#263238" stroke-width="0.552" stroke-linecap="round" stroke-linejoin="round"/>
<path d="M154.136 65.4395C154.236 65.5808 154.291 65.7485 154.295 65.9212C154.299 66.094 154.252 66.2641 154.159 66.4099C154.066 66.5557 153.932 66.6707 153.774 66.7402C153.615 66.8097 153.44 66.8307 153.27 66.8004C153.1 66.7701 152.943 66.6899 152.818 66.57C152.694 66.4502 152.607 66.296 152.571 66.1271C152.534 65.9582 152.548 65.7823 152.612 65.6215C152.675 65.4607 152.785 65.3225 152.927 65.2242C153.02 65.158 153.126 65.1111 153.237 65.0861C153.349 65.061 153.464 65.0585 153.577 65.0785C153.689 65.0986 153.797 65.1408 153.893 65.2028C153.989 65.2647 154.071 65.3452 154.136 65.4395Z" fill="white" stroke="#263238" stroke-width="0.552" stroke-linecap="round" stroke-linejoin="round"/>
<path d="M162.841 53.5825C162.904 53.6665 162.949 53.7625 162.974 53.8647C162.998 53.9668 163.002 54.0729 162.984 54.1765C162.966 54.28 162.926 54.3786 162.869 54.4664C162.811 54.5541 162.735 54.6291 162.648 54.6865C162.564 54.7445 162.47 54.7855 162.371 54.8072C162.272 54.8289 162.169 54.8308 162.069 54.8129C161.969 54.7949 161.874 54.7575 161.788 54.7026C161.703 54.6478 161.629 54.5767 161.571 54.4933C161.513 54.41 161.472 54.316 161.45 54.2168C161.429 54.1176 161.427 54.0151 161.445 53.9151C161.463 53.8152 161.5 53.7197 161.555 53.6342C161.61 53.5488 161.681 53.4749 161.764 53.4169C161.846 53.3568 161.938 53.3133 162.037 53.2891C162.135 53.2648 162.237 53.2603 162.337 53.2756C162.437 53.291 162.533 53.3261 162.62 53.3787C162.706 53.4314 162.781 53.5007 162.841 53.5825Z" fill="white" stroke="#263238" stroke-width="0.552" stroke-linecap="round" stroke-linejoin="round"/>
<path d="M146.336 72.5271C146.499 72.763 146.59 73.0421 146.595 73.3292C146.6 73.6163 146.52 73.8985 146.365 74.14C146.209 74.3816 145.986 74.5718 145.723 74.6864C145.459 74.801 145.168 74.835 144.886 74.784C144.603 74.7331 144.342 74.5995 144.135 74.4001C143.929 74.2007 143.786 73.9446 143.725 73.664C143.664 73.3834 143.687 73.091 143.792 72.8238C143.897 72.5566 144.079 72.3266 144.315 72.1628C144.631 71.9433 145.022 71.8583 145.401 71.9266C145.78 71.9949 146.116 72.2109 146.336 72.5271Z" fill="white" stroke="#263238" stroke-width="0.552" stroke-linecap="round" stroke-linejoin="round"/>
<path d="M145.535 77.832C145.742 78.1304 145.857 78.4835 145.864 78.8469C145.87 79.2102 145.769 79.5674 145.573 79.8734C145.377 80.1793 145.094 80.4202 144.761 80.5657C144.428 80.7111 144.06 80.7546 143.702 80.6906C143.344 80.6266 143.014 80.458 142.752 80.2061C142.49 79.9542 142.308 79.6304 142.23 79.2754C142.152 78.9204 142.181 78.5504 142.314 78.2119C142.446 77.8734 142.676 77.5818 142.974 77.3738C143.374 77.0959 143.869 76.9881 144.349 77.074C144.829 77.1598 145.255 77.4324 145.535 77.832Z" fill="white" stroke="#263238" stroke-width="0.552" stroke-linecap="round" stroke-linejoin="round"/>
<path d="M148.223 74.2164C148.342 74.3804 148.408 74.5761 148.415 74.7783C148.421 74.9804 148.367 75.1799 148.259 75.3512C148.152 75.5224 147.995 75.6576 147.81 75.7394C147.625 75.8212 147.42 75.8459 147.221 75.8103C147.022 75.7748 146.838 75.6806 146.693 75.5398C146.547 75.399 146.447 75.2181 146.406 75.0202C146.364 74.8222 146.382 74.6163 146.458 74.4289C146.534 74.2414 146.664 74.0809 146.832 73.968C147.051 73.8207 147.318 73.7643 147.578 73.8106C147.838 73.857 148.069 74.0025 148.223 74.2164Z" fill="white" stroke="#263238" stroke-width="0.552" stroke-linecap="round" stroke-linejoin="round"/>
<path d="M153.242 68.895C153.341 69.0367 153.395 69.2046 153.398 69.3774C153.402 69.5501 153.353 69.7199 153.26 69.8652C153.167 70.0106 153.032 70.1248 152.874 70.1936C152.715 70.2624 152.54 70.2825 152.37 70.2514C152.2 70.2204 152.043 70.1396 151.919 70.0192C151.795 69.8989 151.71 69.7444 151.673 69.5755C151.637 69.4065 151.652 69.2306 151.716 69.0702C151.78 68.9097 151.891 68.7719 152.033 68.6742C152.127 68.609 152.233 68.563 152.344 68.5388C152.456 68.5146 152.571 68.5128 152.684 68.5333C152.796 68.5538 152.903 68.5963 152.999 68.6584C153.095 68.7205 153.177 68.8009 153.242 68.895Z" fill="white" stroke="#263238" stroke-width="0.552" stroke-linecap="round" stroke-linejoin="round"/>
<path d="M147.424 67.9952C147.461 68.0472 147.487 68.106 147.501 68.1682C147.515 68.2304 147.516 68.2947 147.505 68.3573C147.493 68.42 147.47 68.4798 147.435 68.5333C147.4 68.5867 147.355 68.6327 147.303 68.6686C147.197 68.7289 147.073 68.7474 146.955 68.7206C146.836 68.6938 146.732 68.6236 146.663 68.5239C146.594 68.4242 146.564 68.3021 146.581 68.1818C146.597 68.0614 146.658 67.9515 146.751 67.8738C146.803 67.837 146.862 67.811 146.924 67.7973C146.986 67.7835 147.05 67.7822 147.113 67.7935C147.176 67.8048 147.235 67.8285 147.289 67.8631C147.342 67.8977 147.388 67.9426 147.424 67.9952Z" fill="white" stroke="#263238" stroke-width="0.552" stroke-linecap="round" stroke-linejoin="round"/>
<path d="M157.53 65.9032C157.629 66.0445 157.684 66.2121 157.687 66.3845C157.691 66.557 157.643 66.7267 157.551 66.8721C157.458 67.0175 157.324 67.1321 157.166 67.2014C157.008 67.2708 156.833 67.2917 156.663 67.2616C156.493 67.2315 156.336 67.1517 156.212 67.0323C156.087 66.9129 156.001 66.7592 155.964 66.5908C155.927 66.4223 155.94 66.2466 156.003 66.0859C156.066 65.9252 156.175 65.7867 156.316 65.6879C156.506 65.5554 156.74 65.5037 156.968 65.544C157.196 65.5844 157.398 65.7136 157.53 65.9032Z" fill="white" stroke="#263238" stroke-width="0.552" stroke-linecap="round" stroke-linejoin="round"/>
<path d="M137.913 101.248C137.913 101.248 119.912 88.7284 110.489 74.531" stroke="#263238" stroke-width="0.552" stroke-linecap="round" stroke-linejoin="round"/>
<path d="M110.573 77.1309C110.826 77.0116 111.116 76.9969 111.38 77.09C111.645 77.1831 111.861 77.3765 111.984 77.6283C112.107 77.8801 112.125 78.1701 112.036 78.4355C111.946 78.7009 111.756 78.9204 111.505 79.0463C111.379 79.1098 111.242 79.1476 111.101 79.1575C110.961 79.1674 110.819 79.1493 110.686 79.1042C110.552 79.059 110.428 78.9878 110.323 78.8946C110.217 78.8014 110.13 78.6881 110.068 78.5613C110.007 78.4344 109.971 78.2966 109.963 78.1557C109.955 78.0148 109.975 77.8738 110.021 77.7407C110.068 77.6076 110.141 77.4852 110.236 77.3805C110.33 77.2758 110.445 77.191 110.573 77.1309Z" fill="white" stroke="#263238" stroke-width="0.552" stroke-linecap="round" stroke-linejoin="round"/>
<path d="M106.913 71.1637C107.153 71.0469 107.423 71.0039 107.688 71.0403C107.952 71.0766 108.201 71.1906 108.401 71.3679C108.601 71.5452 108.744 71.7779 108.812 72.0364C108.88 72.295 108.869 72.5679 108.782 72.8206C108.695 73.0734 108.535 73.2947 108.322 73.4565C108.11 73.6184 107.854 73.7135 107.587 73.73C107.32 73.7464 107.054 73.6834 106.823 73.5489C106.592 73.4144 106.406 73.2144 106.289 72.9743C106.21 72.8146 106.163 72.6409 106.152 72.4632C106.141 72.2854 106.165 72.1072 106.223 71.9389C106.281 71.7705 106.372 71.6153 106.49 71.4822C106.608 71.3492 106.752 71.2409 106.913 71.1637Z" fill="white" stroke="#263238" stroke-width="0.552" stroke-linecap="round" stroke-linejoin="round"/>
<path d="M110.003 73.5318C110.117 73.476 110.241 73.4432 110.368 73.4353C110.495 73.4275 110.622 73.4446 110.742 73.4859C110.862 73.5272 110.973 73.5917 111.068 73.6758C111.164 73.7599 111.241 73.862 111.297 73.9762C111.353 74.0903 111.386 74.2144 111.394 74.3412C111.401 74.4681 111.384 74.5952 111.343 74.7154C111.302 74.8356 111.237 74.9465 111.153 75.0418C111.069 75.137 110.967 75.2148 110.853 75.2706C110.622 75.3833 110.356 75.3999 110.113 75.3165C109.871 75.2332 109.671 75.0568 109.558 74.8262C109.446 74.5957 109.429 74.3298 109.512 74.087C109.596 73.8442 109.772 73.6445 110.003 73.5318Z" fill="white" stroke="#263238" stroke-width="0.552" stroke-linecap="round" stroke-linejoin="round"/>
<path d="M115.369 82.9821C115.627 82.8567 115.917 82.8108 116.201 82.8501C116.486 82.8895 116.752 83.0124 116.967 83.2032C117.182 83.3941 117.335 83.6444 117.407 83.9223C117.48 84.2003 117.468 84.4935 117.374 84.7648C117.279 85.0361 117.107 85.2734 116.878 85.4465C116.648 85.6197 116.373 85.721 116.086 85.7375C115.799 85.7541 115.514 85.6852 115.267 85.5396C115.019 85.394 114.82 85.1783 114.695 84.9196C114.612 84.7483 114.563 84.5621 114.551 84.3718C114.54 84.1815 114.566 83.9909 114.629 83.8108C114.692 83.6307 114.789 83.4648 114.916 83.3226C115.043 83.1804 115.197 83.0647 115.369 82.9821Z" fill="white" stroke="#263238" stroke-width="0.552" stroke-linecap="round" stroke-linejoin="round"/>
<path d="M113.337 77.9368C113.526 77.8445 113.739 77.8105 113.948 77.839C114.157 77.8675 114.352 77.9573 114.51 78.097C114.668 78.2368 114.78 78.4201 114.834 78.6239C114.888 78.8277 114.879 79.0428 114.811 79.242C114.742 79.4412 114.616 79.6155 114.448 79.743C114.28 79.8704 114.078 79.9453 113.868 79.958C113.658 79.9707 113.448 79.9208 113.266 79.8145C113.084 79.7083 112.938 79.5504 112.846 79.361C112.784 79.2354 112.747 79.0987 112.738 78.9589C112.73 78.819 112.749 78.6789 112.794 78.5464C112.84 78.414 112.911 78.2919 113.005 78.1873C113.098 78.0826 113.211 77.9975 113.337 77.9368Z" fill="white" stroke="#263238" stroke-width="0.552" stroke-linecap="round" stroke-linejoin="round"/>
<path d="M111.835 72.4279C111.881 72.4053 111.93 72.392 111.98 72.3888C112.031 72.3855 112.081 72.3922 112.129 72.4087C112.177 72.4251 112.221 72.4509 112.259 72.4845C112.296 72.5181 112.327 72.5589 112.349 72.6045C112.383 72.6731 112.396 72.7504 112.386 72.8264C112.376 72.9024 112.343 72.9737 112.293 73.0312C112.242 73.0888 112.176 73.13 112.102 73.1497C112.028 73.1693 111.949 73.1665 111.877 73.1416C111.804 73.1166 111.741 73.0707 111.695 73.0097C111.648 72.9486 111.621 72.8751 111.617 72.7986C111.612 72.7221 111.631 72.646 111.67 72.58C111.709 72.514 111.766 72.461 111.835 72.4279Z" fill="white" stroke="#263238" stroke-width="0.552" stroke-linecap="round" stroke-linejoin="round"/>
<path d="M120.519 86.4928C120.674 86.4173 120.848 86.3894 121.019 86.4129C121.19 86.4363 121.35 86.5099 121.479 86.6244C121.608 86.7388 121.7 86.889 121.744 87.056C121.788 87.2229 121.781 87.399 121.725 87.5621C121.668 87.7252 121.565 87.8678 121.427 87.9721C121.29 88.0763 121.124 88.1374 120.952 88.1476C120.78 88.1578 120.608 88.1167 120.46 88.0294C120.311 87.9422 120.191 87.8128 120.116 87.6575C120.015 87.4496 120.001 87.2102 120.076 86.9918C120.152 86.7734 120.311 86.5939 120.519 86.4928Z" fill="white" stroke="#263238" stroke-width="0.552" stroke-linecap="round" stroke-linejoin="round"/>
<path d="M115.827 79.9572C115.981 79.8828 116.154 79.8557 116.324 79.8795C116.493 79.9032 116.652 79.9768 116.78 80.0907C116.908 80.2047 116.999 80.354 117.042 80.5198C117.085 80.6856 117.078 80.8605 117.022 81.0223C116.966 81.1841 116.863 81.3256 116.726 81.429C116.59 81.5323 116.426 81.5928 116.254 81.6029C116.083 81.6129 115.913 81.5721 115.766 81.4855C115.618 81.3989 115.499 81.2705 115.424 81.1164C115.374 81.0138 115.345 80.9025 115.338 80.7887C115.332 80.6749 115.348 80.5609 115.385 80.4532C115.422 80.3455 115.481 80.2463 115.557 80.1611C115.632 80.076 115.724 80.0067 115.827 79.9572Z" fill="white" stroke="#263238" stroke-width="0.552" stroke-linecap="round" stroke-linejoin="round"/>
<path d="M105.461 69.5022C105.598 69.4362 105.752 69.4123 105.903 69.4336C106.054 69.4549 106.196 69.5204 106.309 69.6219C106.423 69.7234 106.505 69.8563 106.543 70.0039C106.582 70.1515 106.575 70.3072 106.526 70.4513C106.476 70.5955 106.384 70.7217 106.263 70.814C106.142 70.9063 105.996 70.9607 105.843 70.9701C105.691 70.9796 105.539 70.9438 105.407 70.8673C105.276 70.7907 105.169 70.6769 105.102 70.54C105.057 70.4484 105.03 70.3487 105.024 70.2468C105.018 70.1449 105.032 70.0428 105.065 69.9463C105.098 69.8498 105.15 69.7609 105.218 69.6847C105.286 69.6084 105.369 69.5464 105.461 69.5022Z" fill="white" stroke="#263238" stroke-width="0.552" stroke-linecap="round" stroke-linejoin="round"/>
<path d="M121.618 88.756C121.876 88.6303 122.165 88.5838 122.449 88.6225C122.734 88.6612 123 88.7834 123.215 88.9736C123.43 89.1637 123.584 89.4134 123.657 89.6909C123.731 89.9685 123.72 90.2615 123.627 90.5329C123.533 90.8044 123.362 91.0421 123.133 91.216C122.905 91.3899 122.63 91.4922 122.344 91.51C122.057 91.5278 121.772 91.4602 121.524 91.3159C121.275 91.1715 121.076 90.9569 120.95 90.6991C120.782 90.3526 120.758 89.9539 120.883 89.5898C121.008 89.2258 121.272 88.926 121.618 88.756Z" fill="white" stroke="#263238" stroke-width="0.552" stroke-linecap="round" stroke-linejoin="round"/>
<path d="M126.712 90.3677C127.039 90.2088 127.406 90.1505 127.766 90.2C128.127 90.2496 128.464 90.4048 128.736 90.6462C129.008 90.8875 129.202 91.204 129.294 91.5557C129.386 91.9075 129.372 92.2786 129.253 92.6222C129.134 92.9657 128.916 93.2663 128.626 93.486C128.336 93.7056 127.988 93.8343 127.625 93.8559C127.262 93.8775 126.901 93.7911 126.587 93.6074C126.273 93.4237 126.021 93.1511 125.862 92.8241C125.756 92.6071 125.694 92.3713 125.679 92.1302C125.664 91.8891 125.698 91.6474 125.777 91.4191C125.856 91.1908 125.979 90.9804 126.14 90.8C126.3 90.6195 126.495 90.4726 126.712 90.3677Z" fill="white" stroke="#263238" stroke-width="0.552" stroke-linecap="round" stroke-linejoin="round"/>
<path d="M123.583 87.1552C123.825 87.0366 124.104 87.0191 124.36 87.1066C124.615 87.1941 124.825 87.3793 124.943 87.6216C125.062 87.8639 125.079 88.1434 124.992 88.3986C124.904 88.6537 124.719 88.8637 124.477 88.9823C124.357 89.041 124.227 89.0755 124.093 89.0839C123.96 89.0922 123.826 89.0742 123.7 89.0309C123.574 88.9876 123.457 88.9198 123.357 88.8314C123.257 88.7431 123.175 88.6358 123.116 88.5159C123.058 88.3959 123.023 88.2655 123.015 88.1322C123.006 87.9989 123.024 87.8653 123.068 87.7389C123.111 87.6126 123.179 87.496 123.267 87.3958C123.355 87.2957 123.463 87.2139 123.583 87.1552Z" fill="white" stroke="#263238" stroke-width="0.552" stroke-linecap="round" stroke-linejoin="round"/>
<path d="M119.101 81.3757C119.255 81.3018 119.427 81.2752 119.597 81.2992C119.766 81.3233 119.924 81.3968 120.052 81.5107C120.18 81.6245 120.271 81.7736 120.314 81.939C120.357 82.1045 120.35 82.2791 120.294 82.4406C120.238 82.6022 120.136 82.7437 120 82.8472C119.863 82.9507 119.7 83.0116 119.529 83.0222C119.358 83.0329 119.188 82.9929 119.04 82.9071C118.893 82.8214 118.773 82.6938 118.698 82.5404C118.647 82.4376 118.617 82.3258 118.61 82.2114C118.603 82.097 118.619 81.9823 118.656 81.8739C118.694 81.7656 118.752 81.6658 118.828 81.5803C118.905 81.4948 118.997 81.4252 119.101 81.3757Z" fill="white" stroke="#263238" stroke-width="0.552" stroke-linecap="round" stroke-linejoin="round"/>
<path d="M117.312 86.9841C117.368 86.9551 117.43 86.9378 117.494 86.9332C117.557 86.9287 117.621 86.9369 117.682 86.9575C117.742 86.9781 117.797 87.0106 117.845 87.0531C117.892 87.0956 117.931 87.1472 117.958 87.2049C118.001 87.2911 118.017 87.3882 118.005 87.4837C117.992 87.5793 117.952 87.669 117.888 87.7415C117.825 87.814 117.741 87.866 117.648 87.8909C117.555 87.9157 117.457 87.9124 117.366 87.8812C117.275 87.8501 117.195 87.7925 117.136 87.7158C117.078 87.6392 117.044 87.5469 117.038 87.4507C117.032 87.3546 117.055 87.2589 117.104 87.1758C117.153 87.0927 117.225 87.0259 117.312 86.9841Z" fill="white" stroke="#263238" stroke-width="0.552" stroke-linecap="round" stroke-linejoin="round"/>
<path d="M116.81 76.6727C116.913 76.6173 117.027 76.5833 117.144 76.5728C117.261 76.5623 117.379 76.5756 117.491 76.6118C117.602 76.648 117.706 76.7064 117.794 76.7834C117.883 76.8605 117.955 76.9547 118.006 77.0603C118.058 77.1659 118.087 77.2808 118.093 77.3981C118.099 77.5154 118.081 77.6327 118.04 77.7429C118 77.8531 117.937 77.954 117.857 78.0395C117.776 78.1249 117.679 78.1933 117.572 78.2404C117.365 78.3308 117.132 78.3378 116.92 78.2599C116.709 78.182 116.536 78.0254 116.437 77.8227C116.339 77.62 116.323 77.3871 116.392 77.1727C116.462 76.9583 116.611 76.7791 116.81 76.6727Z" fill="white" stroke="#263238" stroke-width="0.552" stroke-linecap="round" stroke-linejoin="round"/>
<path d="M120.337 98.5816C120.337 98.5816 112.438 86.2996 110.462 81.4696C108.486 76.6396 102.348 64.1423 100.592 60.4108C98.8368 56.6793 97.7052 54.2726 97.7052 54.2726L91.7822 57.7833C91.7822 57.7833 99.455 74.669 102.75 79.499C106.046 84.329 111.963 96.1694 114.376 99.2385C116.788 102.308 119.857 106.475 123.368 108.451C126.878 110.428 132.139 109.771 133.017 109.555C133.894 109.34 120.337 98.5816 120.337 98.5816Z" fill="white" stroke="#263238" stroke-width="0.552" stroke-linecap="round" stroke-linejoin="round"/>
<path d="M169.879 73.7913L172.953 75.9993C172.953 75.9993 165.049 93.3155 160.666 99.9119C156.283 106.508 154.527 110.002 151.453 111.101C148.378 112.199 142.902 112.205 142.902 112.205C142.902 112.205 152.772 102.55 156.702 96.8483C160.633 91.1461 169.879 73.7913 169.879 73.7913Z" fill="white" stroke="#263238" stroke-width="0.552" stroke-linecap="round" stroke-linejoin="round"/>
<path d="M159.131 74.8898C159.131 74.8898 163.961 73.576 165.711 73.1344C167.461 72.6928 172.732 68.3099 172.732 68.3099C172.732 68.3099 165.932 82.7999 164.397 86.9565C162.863 91.1131 156.283 101.86 153.208 106.276C150.133 110.692 147.07 111.979 144.873 112.199C142.676 112.42 140.269 112.415 138.072 112.415C135.875 112.415 134.567 112.636 133.469 112.415C132.37 112.194 129.522 109.787 129.522 109.787C129.522 109.787 124.692 103.643 125.569 99.2551C126.447 94.8667 133.027 90.0422 139.171 86.7523C145.315 83.4623 154.527 77.1033 155.405 76.6617C156.283 76.2201 159.131 74.8898 159.131 74.8898Z" fill="white" stroke="#263238" stroke-width="0.552" stroke-linecap="round" stroke-linejoin="round"/>
<path d="M129.522 109.771C129.522 109.771 120.088 100.116 118.129 97.047C116.169 93.9779 123.616 87.1773 125.807 85.858C127.999 84.5387 143.134 78.6213 148.18 76.8659C153.225 75.1105 161.98 73.7913 161.98 73.7913C155.955 77.4442 150.168 81.4744 144.652 85.858C135.876 92.8794 131.708 93.7571 129.517 98.14C127.325 102.523 129.522 109.771 129.522 109.771Z" fill="white" stroke="#263238" stroke-width="0.552" stroke-linecap="round" stroke-linejoin="round"/>
<path d="M133.468 111.504C133.468 111.504 121.843 106.023 119.668 104.267C117.493 102.512 107.828 93.0782 104.974 88.0329C102.12 82.9876 91.1738 65.2242 91.1738 65.2242C91.1738 65.2242 102.363 88.2537 105.653 93.5198C108.943 98.7858 114.645 111.068 117.935 112.84C121.225 114.612 131.928 114.816 133.468 111.504Z" fill="white" stroke="#263238" stroke-width="0.552" stroke-linecap="round" stroke-linejoin="round"/>
<path d="M130.118 150.348L129.24 166.798L131.211 167.234V149.907L130.118 150.348Z" fill="#263238" stroke="#263238" stroke-width="0.552" stroke-linecap="round" stroke-linejoin="round"/>
<path d="M133.188 151.441L134.722 166.577L136.698 167.019L133.624 148.808L133.188 150.563V151.441Z" fill="#263238" stroke="#263238" stroke-width="0.552" stroke-linecap="round" stroke-linejoin="round"/>
<path d="M137.79 167.234L136.256 149.906L137.575 149.686L139.546 167.018L137.79 167.234Z" fill="#263238" stroke="#263238" stroke-width="0.552" stroke-linecap="round" stroke-linejoin="round"/>
<path d="M139.11 149.47L138.232 169.431L139.988 169.867L140.209 149.686L139.11 149.47Z" fill="#263238" stroke="#263238" stroke-width="0.552" stroke-linecap="round" stroke-linejoin="round"/>
<path d="M131.212 152.54L132.531 168.332L134.502 168.989L132.09 150.563L131.212 152.54Z" fill="#263238" stroke="#263238" stroke-width="0.552" stroke-linecap="round" stroke-linejoin="round"/>
<path d="M127.983 113.938C127.983 113.938 123.975 142.642 123.534 147.273C123.092 151.905 122.877 156.486 122.877 156.486L127.293 153.417C129.396 153.789 131.455 154.378 133.437 155.173C136.749 156.486 139.575 157.143 142.865 156.277C146.155 155.41 148.573 154.742 148.573 154.742L148.788 147.285L151.642 142.681C151.642 142.681 147.976 113.977 143.809 109.34C139.641 104.703 129.523 111.504 127.983 113.938Z" fill="white" stroke="#263238" stroke-width="0.552" stroke-linecap="round" stroke-linejoin="round"/>
<path d="M148.76 147.273C148.76 147.273 143.279 149.481 139.111 149.481C135.504 149.548 131.909 149.917 128.364 150.585C127.701 150.806 127.922 147.737 131.676 142.907C135.429 138.077 137.002 115.274 137.438 112.42" fill="white"/>
<path d="M148.76 147.273C148.76 147.273 143.279 149.481 139.111 149.481C135.504 149.548 131.909 149.917 128.364 150.585C127.701 150.806 127.922 147.737 131.676 142.907C135.429 138.077 137.002 115.274 137.438 112.42" stroke="#263238" stroke-width="0.552" stroke-linecap="round" stroke-linejoin="round"/>
<path d="M128.363 150.563L123.317 152.319" stroke="#263238" stroke-width="0.552" stroke-linecap="round" stroke-linejoin="round"/>
<path d="M98.1513 137.724L106.845 134.351C106.845 134.351 124.057 117.14 125.829 116.61C127.6 116.08 149.962 111.819 151.734 111.995C153.506 112.172 154.753 113.414 154.753 114.656C154.753 115.898 157.055 124.951 156.879 126.193C156.813 126.872 156.499 127.503 155.995 127.965C155.995 127.965 155.995 131.161 155.813 133.109C155.666 134.401 155.308 135.659 154.753 136.835C154.753 136.835 154.93 140.385 154.395 142.355C153.931 143.796 153.276 145.168 152.446 146.434C152.446 146.434 152.799 151.402 151.894 153.357C150.989 155.311 147.815 157.773 145.154 157.966C142.493 158.159 136.637 158.854 136.101 158.854C135.566 158.854 127.054 161.515 123.863 162.227C120.673 162.939 112.327 163.293 112.327 163.293C112.327 163.293 104.698 164.358 101.507 163.845C99.7045 163.558 97.9244 163.143 96.1807 162.603L98.1513 137.724Z" fill="white" stroke="#263238" stroke-width="0.552" stroke-linecap="round" stroke-linejoin="round"/>
<path d="M139.138 122.108C139.138 122.108 151.204 125.127 153.33 125.481C153.96 125.609 154.542 125.908 155.013 126.347C155.483 126.785 155.823 127.345 155.996 127.965" stroke="#263238" stroke-width="0.552" stroke-linecap="round" stroke-linejoin="round"/>
<path d="M148.538 124.415L153.329 121.225" stroke="#263238" stroke-width="0.552" stroke-linecap="round" stroke-linejoin="round"/>
<path d="M137.36 132.049L140.38 133.468L154.754 136.835" stroke="#263238" stroke-width="0.552" stroke-linecap="round" stroke-linejoin="round"/>
<path d="M136.478 142.515L138.603 144.111L152.447 146.418" stroke="#263238" stroke-width="0.552" stroke-linecap="round" stroke-linejoin="round"/>
<path d="M136.119 158.838L129.732 159.015" stroke="#263238" stroke-width="0.552" stroke-linecap="round" stroke-linejoin="round"/>
<path d="M101.166 134.887L99.5703 166.825L88.0391 166.113L90.6997 134.175L101.166 134.887Z" fill="white" stroke="#263238" stroke-width="0.552" stroke-linecap="round" stroke-linejoin="round"/>
<path d="M14.6123 172.677L91.2299 171.97L94.426 134.175L19.906 122.163C17.5656 130.603 16.5507 139.355 16.8976 148.107C17.56 164.203 14.6123 172.677 14.6123 172.677Z" fill="#263238"/>
<path d="M14.6123 172.677L91.2299 171.97L94.426 134.175L19.9281 122.163" stroke="#263238" stroke-width="0.552" stroke-linecap="round" stroke-linejoin="round"/>
</svg>
