<svg width="12" height="13" viewBox="0 0 12 13" fill="none" xmlns="http://www.w3.org/2000/svg">
<path d="M10.625 10.1735L9.8 10.3685C9.615 10.4135 9.47 10.5535 9.43 10.7385L9.255 11.4735C9.16 11.8735 8.65 11.9985 8.385 11.6835L6.89 9.96347C6.77 9.82347 6.835 9.60347 7.015 9.55847C7.9 9.34347 8.695 8.84847 9.28 8.14347C9.375 8.02847 9.545 8.01347 9.65 8.11847L10.76 9.22847C11.14 9.60847 11.005 10.0835 10.625 10.1735Z" fill="#F4B740"/>
<path d="M1.34996 10.1735L2.17496 10.3685C2.35996 10.4135 2.50496 10.5535 2.54496 10.7385L2.71996 11.4735C2.81496 11.8735 3.32496 11.9985 3.58996 11.6835L5.08496 9.96347C5.20496 9.82347 5.13996 9.60347 4.95996 9.55847C4.07496 9.34347 3.27996 8.84847 2.69496 8.14347C2.59996 8.02847 2.42996 8.01347 2.32496 8.11847L1.21496 9.22847C0.834959 9.60847 0.969959 10.0835 1.34996 10.1735Z" fill="#F4B740"/>
<path d="M6 1.93848C4.065 1.93848 2.5 3.50348 2.5 5.43848C2.5 6.16348 2.715 6.82848 3.085 7.38348C3.625 8.18348 4.48 8.74848 5.475 8.89348C5.645 8.92348 5.82 8.93848 6 8.93848C6.18 8.93848 6.355 8.92348 6.525 8.89348C7.52 8.74848 8.375 8.18348 8.915 7.38348C9.285 6.82848 9.5 6.16348 9.5 5.43848C9.5 3.50348 7.935 1.93848 6 1.93848ZM7.53 5.32848L7.115 5.74348C7.045 5.81348 7.005 5.94848 7.03 6.04848L7.15 6.56348C7.245 6.96848 7.03 7.12848 6.67 6.91348L6.17 6.61848C6.08 6.56348 5.93 6.56348 5.84 6.61848L5.34 6.91348C4.98 7.12348 4.765 6.96848 4.86 6.56348L4.98 6.04848C5 5.95348 4.965 5.81348 4.895 5.74348L4.47 5.32848C4.225 5.08348 4.305 4.83848 4.645 4.78348L5.18 4.69348C5.27 4.67848 5.375 4.59848 5.415 4.51848L5.71 3.92848C5.87 3.60848 6.13 3.60848 6.29 3.92848L6.585 4.51848C6.625 4.59848 6.73 4.67848 6.825 4.69348L7.36 4.78348C7.695 4.83848 7.775 5.08348 7.53 5.32848Z" fill="#F4B740"/>
</svg>
