<svg width="32" height="32" viewBox="0 0 32 32" fill="none" xmlns="http://www.w3.org/2000/svg">
<circle cx="16" cy="16" r="16" fill="#151A44"/>
<path d="M22.3534 18.62C22.2467 18.44 21.9467 18.16 21.2 18.2933C20.7867 18.3667 20.3667 18.4 19.9467 18.38C18.3934 18.3133 16.9867 17.6 16.0067 16.5C15.14 15.5333 14.6067 14.2733 14.6 12.9133C14.6 12.1533 14.7467 11.42 15.0467 10.7267C15.34 10.0533 15.1334 9.7 14.9867 9.55333C14.8334 9.4 14.4734 9.18666 13.7667 9.48C11.04 10.6267 9.35338 13.36 9.55338 16.2867C9.75338 19.04 11.6867 21.3933 14.2467 22.28C14.86 22.4933 15.5067 22.62 16.1734 22.6467C16.28 22.6533 16.3867 22.66 16.4934 22.66C18.7267 22.66 20.82 21.6067 22.14 19.8133C22.5867 19.1933 22.4667 18.8 22.3534 18.62Z" fill="white"/>
</svg>
